<svg aria-hidden="true" style="position: absolute; width: 0; height: 0; overflow: hidden;" version="1.1" xmlns="http://www.w3.org/2000/svg" xmlns:xlink="http://www.w3.org/1999/xlink">
<defs>
<symbol id="icon-astronaut" viewBox="0 0 32 32">
<path fill="#4d5ae5" style="fill: var(--color1, #4d5ae5)" d="M31.974 4.524c-0.064-0.191-0.227-0.332-0.427-0.362l-0.003-0-1.911-0.278-0.855-1.731c-0.179-0.365-0.776-0.365-0.956 0l-0.855 1.731-1.91 0.278c-0.26 0.039-0.457 0.26-0.457 0.528 0 0.149 0.061 0.285 0.161 0.381l1.383 1.348-0.326 1.903c-0.034 0.2 0.048 0.402 0.212 0.521 0.166 0.12 0.383 0.136 0.562 0.040l1.709-0.899 1.709 0.899c0.072 0.038 0.157 0.061 0.247 0.061 0.295 0 0.534-0.239 0.534-0.534 0-0.031-0.003-0.062-0.008-0.092l0 0.003-0.326-1.903 1.383-1.348c0.099-0.097 0.161-0.233 0.161-0.382 0-0.059-0.009-0.115-0.027-0.168l0.001 0.004zM29.511 5.851c-0.125 0.122-0.183 0.299-0.153 0.472l0.191 1.114-1-0.526c-0.072-0.039-0.158-0.062-0.248-0.062s-0.177 0.023-0.251 0.063l0.003-0.001-1 0.526 0.191-1.114c0.005-0.027 0.008-0.058 0.008-0.090 0-0.15-0.061-0.285-0.161-0.382l-0.81-0.79 1.119-0.162c0.174-0.025 0.323-0.135 0.401-0.292l0.5-1.013 0.501 1.013c0.078 0.157 0.228 0.267 0.402 0.292l1.119 0.162-0.809 0.79zM26.134 20.522h-1.067v1.067h1.067v-1.067zM26.134 22.655h-1.067v1.067h1.067v-1.067z"></path>
<path fill="#4d5ae5" style="fill: var(--color1, #4d5ae5)" d="M27.2 21.589h-1.067v1.067h1.067v-1.067zM25.067 21.589h-1.067v1.067h1.067v-1.067zM22.4 26.389h-1.067v1.067h1.067v-1.067zM22.4 28.523h-1.067v1.067h1.067v-1.067zM23.467 27.456h-1.067v1.067h1.067v-1.067z"></path>
<path fill="#4d5ae5" style="fill: var(--color1, #4d5ae5)" d="M21.334 27.456h-1.067v1.067h1.067v-1.067zM16 24.256h-1.066v1.067h1.066v-1.067zM16 26.389h-1.066v1.067h1.066v-1.067zM17.067 25.323h-1.067v1.067h1.067v-1.067zM14.934 25.323h-1.067v1.067h1.067v-1.067zM5.867 6.122h-1.066v1.066h1.066v-1.066zM5.867 8.255h-1.066v1.067h1.066v-1.066zM6.933 7.189h-1.066v1.067h1.066v-1.067zM4.8 7.189h-1.067v1.067h1.067v-1.067z"></path>
<path fill="#2e2f42" style="fill: var(--color2, #2e2f42)" d="M24.715 14.159c-0.28-0.377-0.699-0.636-1.179-0.704l-0.009-0.001c-0.076-0.012-0.164-0.018-0.254-0.018-0.411 0-0.789 0.139-1.090 0.374l0.004-0.003-1.252 0.96-1.898 1.417-1.358-0.541c2.421-1.086 4.114-3.508 4.114-6.32 0-3.823-3.122-6.933-6.961-6.933s-6.962 3.11-6.962 6.933c0 1.386 0.414 2.674 1.12 3.758l-2.769-0.024c-0.008 0-0.015 0.005-0.024 0.005-0.053 0.002-0.104 0.012-0.155 0.030-0.013 0.005-0.026 0.008-0.038 0.014-0.006 0.002-0.013 0.003-0.019 0.007l-3.234 1.597-1.893 0.911c-0.024 0.011-0.045 0.023-0.064 0.036l0.001-0.001c-0.482 0.324-0.794 0.866-0.794 1.482 0 0.297 0.073 0.576 0.201 0.822l-0.005-0.010c0.22 0.429 0.595 0.745 1.056 0.89 0.161 0.053 0.345 0.083 0.537 0.083 0.308 0 0.598-0.078 0.851-0.216l-0.009 0.005 1.388-0.738 2.264-1.169 1.357-0.008-5.442 5.415c0 0.001-0.001 0.001-0.002 0.002l-1.339 1.333c-0.303 0.299-0.49 0.714-0.49 1.173 0 0.002 0 0.003 0 0.005v-0c0 0.445 0.173 0.863 0.49 1.178 0.325 0.323 0.752 0.485 1.179 0.485s0.855-0.162 1.18-0.485l1.314-1.308 1.74-1.3 0.901 0.897-3.102 3.088c-0.303 0.299-0.49 0.714-0.49 1.173 0 0.002 0 0.003 0 0.005v-0c0 0.445 0.174 0.863 0.49 1.179 0.325 0.323 0.752 0.485 1.18 0.485s0.855-0.162 1.18-0.485l3.482-3.466c0-0.001 0-0.002 0.001-0.002l1.010-1-0.004-0.003c0.007-0.006 0.015-0.009 0.022-0.015l5.166-5.658 3.471 0.494c0.020 0.003 0.044 0.004 0.068 0.004 0.070 0 0.137-0.014 0.198-0.039l-0.004 0.001c0.017-0.006 0.033-0.015 0.050-0.023 0.019-0.009 0.039-0.015 0.057-0.027l3.213-2.134c0.012-0.008 0.018-0.020 0.029-0.029 0.012-0.010 0.029-0.014 0.040-0.025l1.272-1.192c0.347-0.326 0.564-0.787 0.564-1.299 0-0.4-0.132-0.77-0.355-1.067l0.003 0.005zM2.13 17.77c-0.173 0.093-0.37 0.111-0.558 0.052-0.295-0.093-0.505-0.364-0.505-0.683 0-0.236 0.114-0.445 0.29-0.575l0.002-0.001 1.314-0.632 0.316 0.925 0.133 0.388-0.993 0.527zM5.628 15.943l-1.548 0.8-0.255-0.747-0.183-0.537 2.026-1-0.040 1.483zM20.727 9.322c0 0.918-0.219 1.785-0.599 2.559l-4.181-1.899c-0.043-0.575-0.342-1.073-0.782-1.384l-0.006-0.004 1.464-4.86c2.378 0.755 4.105 2.974 4.105 5.587zM8.938 9.322c0-3.235 2.644-5.867 5.894-5.867 0.253 0 0.5 0.022 0.745 0.053l-1.432 4.753c-0.019 0-0.037-0.005-0.057-0.005-0 0-0 0-0.001 0-1.032 0-1.869 0.835-1.872 1.866v0c0.003 1.031 0.84 1.867 1.872 1.867 0 0 0 0 0.001 0h-0c0.694 0 1.294-0.383 1.618-0.944l3.863 1.755c-1.075 1.447-2.795 2.39-4.736 2.39-3.25 0-5.895-2.633-5.895-5.867zM14.895 10.122c0 0.441-0.362 0.8-0.806 0.8-0.001 0-0.001 0-0.002 0-0.443 0-0.802-0.358-0.804-0.8v-0c0-0.441 0.361-0.8 0.806-0.8s0.806 0.359 0.806 0.8zM2.465 25.146c-0.11 0.108-0.261 0.175-0.428 0.175s-0.317-0.067-0.427-0.175l0 0c-0.109-0.108-0.176-0.257-0.176-0.422s0.067-0.315 0.176-0.422l0-0 0.962-0.959 0.851 0.848-0.958 0.955zM5.678 28.88c-0.11 0.109-0.261 0.176-0.428 0.176s-0.317-0.067-0.427-0.175l0 0c-0.109-0.108-0.176-0.257-0.176-0.422s0.067-0.315 0.176-0.422l0-0 0.963-0.959 0.851 0.848-0.96 0.955zM9.161 25.411l-0.002 0.001-1.765 1.76-0.851-0.848 1.763-1.756s0.001 0 0.002-0.001c0.040-0.040 0.065-0.088 0.090-0.135 0.007-0.014 0.020-0.026 0.026-0.040 0.017-0.041 0.019-0.085 0.025-0.129 0.004-0.024 0.014-0.047 0.014-0.073 0-0.035-0.012-0.070-0.020-0.105-0.007-0.032-0.007-0.065-0.018-0.096-0.020-0.050-0.055-0.095-0.091-0.137-0.010-0.012-0.014-0.027-0.025-0.038h-0.001l-0.001-0.002-1.607-1.6c-0.017-0.017-0.039-0.024-0.058-0.038-0.025-0.021-0.054-0.040-0.084-0.056l-0.003-0.001c-0.027-0.013-0.058-0.024-0.090-0.032l-0.003-0.001c-0.030-0.009-0.065-0.017-0.101-0.020l-0.002-0c-0.006-0-0.013-0-0.020-0-0.026 0-0.052 0.002-0.077 0.006l0.003-0c-0.039 0.004-0.074 0.011-0.108 0.021l0.004-0.001c-0.036 0.013-0.067 0.028-0.096 0.046l0.002-0.001c-0.020 0.011-0.043 0.015-0.061 0.029l-1.774 1.324-0.901-0.897 2.399-2.386 4.36 4.289-0.927 0.919zM15.979 18.394c-0.015-0.002-0.030 0.004-0.045 0.003-0.008-0-0.017-0.001-0.026-0.001-0.031 0-0.062 0.003-0.092 0.008l0.003-0c-0.070 0.011-0.132 0.035-0.187 0.069l0.002-0.001c-0.030 0.018-0.057 0.038-0.083 0.061-0.013 0.011-0.028 0.017-0.040 0.029l-4.698 5.146-4.328-4.257 2.833-2.818c0.096-0.097 0.156-0.23 0.156-0.377 0-0.295-0.239-0.534-0.534-0.534-0 0-0.001 0-0.001 0h0l-2.219 0.013 0.027-1.607 3.104 0.027c1.264 1.297 3.027 2.101 4.978 2.101 0.001 0 0.002 0 0.003 0h-0c0.438 0 0.864-0.045 1.279-0.122 0.040 0.032 0.079 0.064 0.13 0.085l2.409 0.96 0.152 0.758 0.178 0.885-3.003-0.427zM20.020 18.573l-0.314-1.558 1.447-1.080 0.947 1.257-2.080 1.381zM23.774 15.742l-0.838 0.785-0.931-1.236 0.831-0.637c0.155-0.12 0.351-0.168 0.543-0.143 0.194 0.027 0.364 0.128 0.48 0.284 0.217 0.292 0.18 0.699-0.085 0.947z"></path>
<path fill="#2e2f42" style="fill: var(--color2, #2e2f42)" d="M13.602 18.544l-2.143-2.134c-0.096-0.096-0.229-0.155-0.376-0.155s-0.28 0.059-0.376 0.155l-2.143 2.134c-0.097 0.097-0.156 0.231-0.156 0.378s0.060 0.281 0.156 0.378l-0-0 2.143 2.133c0.096 0.096 0.229 0.155 0.376 0.155s0.28-0.059 0.376-0.155l2.143-2.133c0.097-0.097 0.157-0.23 0.157-0.378s-0.060-0.282-0.157-0.378l-0-0zM11.083 20.303l-1.386-1.381 1.386-1.381 1.387 1.381-1.387 1.381zM17.164 5.071l-0.258 1.035c0.071 0.018 1.738 0.452 1.738 2.149h1.067c0-2.017-1.666-2.966-2.546-3.185zM19.711 9.322h-1.067v1.067h1.067v-1.067z"></path>
</symbol>
<symbol id="icon-diagram" viewBox="0 0 32 32">
<path fill="#4d5ae5" style="fill: var(--color1, #4d5ae5)" d="M14.925 14.965h1.066v4.797h-1.066v-4.797zM19.19 17.097h1.066v2.665h-1.066v-2.665zM10.661 18.696h1.066v1.066h-1.066v-1.066zM7.463 18.163h1.066v1.599h-1.066v-1.599z"></path>
<path fill="#2e2f42" style="fill: var(--color2, #2e2f42)" d="M1.599 28.291h25.587c0 0 0 0 0 0 0.883 0 1.599-0.716 1.599-1.599v0-2.133c0-0.883-0.716-1.599-1.599-1.599-0 0-0 0-0.001 0h-0.533v-13.293l3.028-2.868c0.207 0.105 0.452 0.166 0.711 0.166 0.888 0 1.608-0.72 1.608-1.608s-0.72-1.608-1.608-1.608c-0.888 0-1.608 0.72-1.608 1.608 0 0.247 0.055 0.48 0.155 0.689l-0.004-0.010-2.282 2.163v-1.23c0-0.883-0.716-1.599-1.599-1.599v0h-21.322c-0 0-0 0-0.001 0-0.883 0-1.599 0.716-1.599 1.599 0 0 0 0 0 0.001v-0 15.991h-0.533c-0.883 0-1.599 0.716-1.599 1.599 0 0 0 0 0 0.001v-0 2.133c0 0.883 0.716 1.599 1.599 1.599v0zM30.384 4.837c0.294 0 0.533 0.239 0.533 0.533s-0.239 0.533-0.533 0.533v0c-0.294 0-0.533-0.239-0.533-0.533s0.239-0.533 0.533-0.533v0zM3.199 6.969c0-0.295 0.239-0.534 0.533-0.534h21.322c0.294 0 0.533 0.239 0.533 0.534v2.238l-1.066 1.013v-2.185c0-0.295-0.238-0.533-0.533-0.533h-19.19c-0.295 0-0.533 0.239-0.533 0.533v13.326c0 0.295 0.239 0.534 0.533 0.534h19.19c0.294 0 0.533-0.239 0.533-0.534v-9.674l1.066-1.010v12.283h-22.388v-15.991zM7.996 13.899c-0.001 0-0.003 0-0.005 0-0.883 0-1.599 0.716-1.599 1.599s0.716 1.599 1.599 1.599c0.432 0 0.824-0.171 1.112-0.45l-0 0 1.853 0.93c0.215 0.108 0.476 0.057 0.636-0.123l3.938-4.431 3.872 2.902c0.208 0.156 0.498 0.139 0.686-0.040l3.365-3.188v8.131h-18.123v-12.26h18.124v2.66l-3.772 3.572-3.905-2.928c-0.088-0.066-0.199-0.106-0.319-0.106-0.158 0-0.3 0.069-0.398 0.178l-0 0.001-3.993 4.493-1.493-0.746c0.011-0.064 0.018-0.129 0.021-0.194-0-0.883-0.716-1.599-1.599-1.599h-0zM8.529 15.498c0 0.294-0.239 0.533-0.533 0.533s-0.533-0.239-0.533-0.533v0c0-0.294 0.239-0.533 0.533-0.533s0.533 0.239 0.533 0.533v0zM11.727 24.026h5.331v0.533c0 0.294-0.238 0.533-0.533 0.533h-4.264c-0.294 0-0.533-0.239-0.533-0.533v0-0.533zM1.066 24.56c0-0.294 0.239-0.533 0.533-0.533h9.062v0.533c0 0 0 0 0 0 0 0.883 0.716 1.599 1.599 1.599h4.265c0.883 0 1.599-0.716 1.599-1.599 0-0 0-0 0-0.001v0-0.533h9.061c0.295 0 0.534 0.238 0.534 0.533v2.133c0 0.294-0.239 0.533-0.534 0.533h-25.586c-0.294 0-0.533-0.239-0.533-0.533v0-2.133z"></path>
</symbol>
<symbol id="icon-antenna" viewBox="0 0 32 32">
<path fill="#2e2f42" style="fill: var(--color2, #2e2f42)" d="M30.773 22.098l-8.443-8.505 0.937-4.615c0.242 0.094 0.499 0.143 0.759 0.145h0.006c0.008 0 0.017 0 0.026 0 1.192 0 2.159-0.967 2.159-2.159s-0.967-2.159-2.159-2.159c-1.192 0-2.159 0.967-2.159 2.159 0 0.26 0.046 0.508 0.13 0.739l-0.005-0.015-4.96 0.605-8.091-8.133c-0.096-0.098-0.229-0.159-0.376-0.16h-0c-0.14 0.001-0.274 0.057-0.373 0.155l-1.513 1.504c-0.097 0.097-0.156 0.23-0.156 0.377s0.060 0.281 0.156 0.377v0l0.814 0.825c-1.143 2.062-1.816 4.522-1.816 7.139 0 4.106 1.656 7.825 4.336 10.526l-0.001-0.001c0.042 0.041 0.091 0.073 0.146 0.098-0.032 0.164-0.051 0.353-0.052 0.546v6.188h-6.4c-1.472 0.001-2.666 1.194-2.667 2.666v1.067c0 0.295 0.239 0.533 0.534 0.533h24.534c0.294 0 0.534-0.239 0.534-0.534v-1.067c-0.002-1.472-1.195-2.665-2.667-2.666h-6.4v-2.742c1.003 0.21 2.024 0.317 3.049 0.32 2.58-0.003 5.005-0.663 7.117-1.822l-0.077 0.039 0.819 0.823c0.099 0.101 0.235 0.159 0.377 0.16 0.14-0.001 0.274-0.056 0.373-0.155l1.512-1.505c0.096-0.097 0.156-0.23 0.156-0.377s-0.060-0.28-0.156-0.377v0zM23.28 6.233c0.193-0.192 0.458-0.31 0.752-0.31 0.589 0 1.067 0.478 1.067 1.066s-0.477 1.066-1.067 1.066c-0 0-0 0-0 0h-0.003c-0.587-0.003-1.061-0.479-1.061-1.066 0-0.296 0.12-0.563 0.315-0.756l0-0h-0.002zM22.024 9.738l-0.599 2.945-1.175-1.182 1.774-1.764zM21.419 8.836l-1.92 1.909-1.485-1.493 3.405-0.415zM24.004 28.8c0.884 0 1.6 0.716 1.6 1.6v0 0.534h-23.466v-0.534c0-0.884 0.716-1.6 1.6-1.6h20.267zM16.538 26.666v1.067h-5.334v-1.067h5.334zM11.204 25.6v-4.053c0-1.294 1.197-2.346 2.666-2.346s2.667 1.053 2.667 2.346v4.053h-5.334zM17.604 23.904v-2.357c0-1.882-1.675-3.413-3.733-3.413-0.018-0-0.038-0-0.059-0-1.353 0-2.54 0.707-3.213 1.771l-0.009 0.016c-2.36-2.482-3.811-5.846-3.811-9.549 0-2.314 0.567-4.496 1.569-6.414l-0.036 0.077 18.602 18.709c-1.823 0.947-3.98 1.502-6.266 1.502-1.079 0-2.128-0.124-3.136-0.357l0.093 0.018zM28.893 23.221l-21.057-21.18 0.755-0.752 7.935 7.98c0.003 0 0.006 0.007 0.009 0.009l13.114 13.191-0.757 0.752z"></path>
<path fill="#4d5ae5" style="fill: var(--color1, #4d5ae5)" d="M13.876 20.267h-0.005c-0.001 0-0.002 0-0.002 0-0.884 0-1.6 0.716-1.6 1.6s0.715 1.599 1.597 1.6h0.005c0.001 0 0.002 0 0.002 0 0.884 0 1.6-0.716 1.6-1.6s-0.715-1.599-1.597-1.6h-0zM14.249 22.245c-0.096 0.096-0.229 0.155-0.376 0.155-0.295 0-0.534-0.239-0.534-0.534 0-0.001 0-0.001 0-0.002v0c0.002-0.292 0.238-0.529 0.53-0.53h0c0.293 0.002 0.531 0.24 0.531 0.534 0 0.148-0.060 0.281-0.157 0.378l-0 0h0.005z"></path>
</symbol>
<symbol id="icon-clock" viewBox="0 0 32 32">
<path fill="#2e2f42" style="fill: var(--color2, #2e2f42)" d="M31.297 15.301c-0.002-8.452-6.855-15.303-15.308-15.301s-15.303 6.855-15.301 15.308c0.002 6.788 4.422 12.543 10.541 14.545l0.108 0.031c0.060 0.019 0.123 0.029 0.187 0.029 0.121 0 0.239-0.032 0.342-0.093 0.135-0.080 0.236-0.207 0.284-0.357l3.865-12.25c1.054-0.004 1.906-0.859 1.906-1.913 0-1.057-0.856-1.913-1.913-1.913-0.303 0-0.59 0.070-0.844 0.196l0.011-0.005-5.106-5.107c-0.115-0.115-0.275-0.187-0.451-0.187-0.352 0-0.638 0.285-0.638 0.638 0 0.176 0.071 0.336 0.187 0.451v0l5.104 5.109c-0.121 0.241-0.191 0.525-0.191 0.826 0 0.601 0.283 1.137 0.723 1.48l0.004 0.003-3.683 11.673c-7.278-2.681-11.005-10.754-8.323-18.032 2.681-7.277 10.755-11.005 18.032-8.323s11.004 10.755 8.323 18.032c-1.345 3.581-4.004 6.406-7.374 7.938l-0.088 0.036-0.398-1.875c-0.063-0.291-0.318-0.505-0.624-0.505-0.163 0-0.312 0.061-0.425 0.162l0.001-0.001-3.837 3.425c-0.132 0.117-0.214 0.287-0.214 0.477 0 0.283 0.185 0.524 0.441 0.607l0.005 0.001 4.899 1.564c0.058 0.020 0.126 0.031 0.196 0.031 0.352 0 0.637-0.285 0.637-0.637 0-0.047-0.005-0.093-0.015-0.137l0.001 0.004-0.391-1.839c5.528-2.374 9.329-7.772 9.329-14.057 0-0.011 0-0.023-0-0.034v0.002zM15.992 14.664c0.352 0 0.638 0.286 0.638 0.638s-0.286 0.638-0.638 0.638v0c-0.352 0-0.638-0.286-0.638-0.638s0.286-0.638 0.638-0.638v0zM18.093 29.527l2.184-1.948 0.603 2.84-2.787-0.892z"></path>
<path fill="#4d5ae5" style="fill: var(--color1, #4d5ae5)" d="M15.354 3.185v1.275c0 0.352 0.285 0.638 0.637 0.638s0.638-0.285 0.638-0.638v-1.275c-0.014-0.341-0.294-0.613-0.637-0.613s-0.624 0.271-0.637 0.611l-0 0.001zM3.876 14.664c-0.352 0-0.637 0.285-0.637 0.637s0.285 0.637 0.638 0.637h1.275c0.352 0 0.638-0.285 0.638-0.637s-0.285-0.637-0.638-0.637h-1.275zM28.108 15.939c0.352 0 0.637-0.285 0.637-0.637s-0.285-0.637-0.637-0.637h-1.275c-0.341 0.014-0.613 0.294-0.613 0.637s0.271 0.624 0.611 0.637l0.001 0h1.275z"></path>
</symbol>
</defs>
</svg>
